<svg width="176" height="48" viewBox="0 0 176 48" fill="none" xmlns="http://www.w3.org/2000/svg">
<rect x="1.5" y="1.5" width="45" height="45" rx="8.5" stroke="white" stroke-width="3" stroke-linejoin="round"/>
<path d="M35.8447 9.96982C36.0135 10.1456 36.1172 10.3714 36.1389 10.6103C36.1605 10.8492 36.0989 11.0871 35.964 11.2852L28.6714 22.0084L35.5718 24.078C35.7746 24.1388 35.9556 24.2561 36.0926 24.4155C36.2295 24.5748 36.3163 24.7693 36.3422 24.9749C36.3682 25.1805 36.3322 25.3881 36.2386 25.5723C36.1451 25.7564 35.9981 25.9089 35.8159 26.011L14.0432 38.2331C13.8325 38.3515 13.586 38.3959 13.344 38.3592C13.1019 38.3225 12.8785 38.2068 12.7102 38.031C12.5419 37.8551 12.4387 37.6295 12.4172 37.3908C12.3958 37.1522 12.4575 36.9146 12.5923 36.7169L19.8854 25.9916L12.985 23.922C12.7822 23.8612 12.6012 23.7439 12.4643 23.5845C12.3274 23.4252 12.2406 23.2307 12.2146 23.0251C12.1887 22.8195 12.2247 22.6119 12.3182 22.4277C12.4118 22.2436 12.5587 22.0911 12.741 21.989L34.5136 9.76693C34.7241 9.6487 34.9702 9.6042 35.212 9.64067C35.4538 9.67714 35.677 9.79243 35.8453 9.9678L35.8447 9.96982ZM15.9947 22.6185L21.8983 24.3892C22.0608 24.4379 22.2099 24.5231 22.3336 24.638C22.4573 24.7528 22.5521 24.8941 22.6104 25.0504C22.6688 25.2068 22.689 25.3738 22.6695 25.5381C22.65 25.7025 22.5913 25.8595 22.4981 25.9965L16.9601 34.1375L32.5601 25.3809L26.6585 23.6108C26.496 23.5621 26.3469 23.4769 26.2233 23.362C26.0996 23.2472 26.0047 23.1059 25.9464 22.9496C25.8881 22.7932 25.8678 22.6262 25.8873 22.4619C25.9068 22.2976 25.9655 22.1406 26.0587 22.0035L31.5967 13.8625L15.9947 22.6185Z" fill="white"/>
<path d="M15.9947 22.6185L21.8983 24.3892C22.0608 24.4379 22.2099 24.5231 22.3336 24.638C22.4573 24.7528 22.5521 24.8941 22.6104 25.0504C22.6688 25.2068 22.689 25.3738 22.6695 25.5381C22.65 25.7025 22.5913 25.8595 22.4981 25.9965L16.9601 34.1375L32.5601 25.3809L26.6585 23.6108C26.496 23.5621 26.3469 23.4769 26.2233 23.362C26.0996 23.2472 26.0047 23.1059 25.9464 22.9496C25.8881 22.7932 25.8678 22.6262 25.8873 22.4619C25.9068 22.2976 25.9655 22.1406 26.0587 22.0035L31.5967 13.8625L15.9947 22.6185Z" fill="white"/>
<path d="M61.123 34V16.1582H54.751V12.5254H71.8164V16.1582H65.459V34H61.123ZM76.8701 34H72.7539V18.4434H76.5771V20.6553C77.2314 19.6104 77.8174 18.9219 78.335 18.5898C78.8623 18.2578 79.458 18.0918 80.1221 18.0918C81.0596 18.0918 81.9629 18.3506 82.832 18.8682L81.5576 22.457C80.8643 22.0078 80.2197 21.7832 79.624 21.7832C79.0479 21.7832 78.5596 21.9443 78.1592 22.2666C77.7588 22.5791 77.4414 23.1504 77.207 23.9805C76.9824 24.8105 76.8701 26.5488 76.8701 29.1953V34ZM93.6279 29.0488L97.7295 29.7373C97.2021 31.2412 96.3672 32.3887 95.2246 33.1797C94.0918 33.9609 92.6709 34.3516 90.9619 34.3516C88.2568 34.3516 86.2549 33.4678 84.9561 31.7002C83.9307 30.2842 83.418 28.4971 83.418 26.3389C83.418 23.7607 84.0918 21.7441 85.4395 20.2891C86.7871 18.8242 88.4912 18.0918 90.5518 18.0918C92.8662 18.0918 94.6924 18.8584 96.0303 20.3916C97.3682 21.915 98.0078 24.2539 97.9492 27.4082H87.6367C87.666 28.6289 87.998 29.5811 88.6328 30.2646C89.2676 30.9385 90.0586 31.2754 91.0059 31.2754C91.6504 31.2754 92.1924 31.0996 92.6318 30.748C93.0713 30.3965 93.4033 29.8301 93.6279 29.0488ZM93.8623 24.8887C93.833 23.6973 93.5254 22.7939 92.9395 22.1787C92.3535 21.5537 91.6406 21.2412 90.8008 21.2412C89.9023 21.2412 89.1602 21.5684 88.5742 22.2227C87.9883 22.877 87.7002 23.7656 87.71 24.8887H93.8623ZM110.327 29.0488L114.429 29.7373C113.901 31.2412 113.066 32.3887 111.924 33.1797C110.791 33.9609 109.37 34.3516 107.661 34.3516C104.956 34.3516 102.954 33.4678 101.655 31.7002C100.63 30.2842 100.117 28.4971 100.117 26.3389C100.117 23.7607 100.791 21.7441 102.139 20.2891C103.486 18.8242 105.19 18.0918 107.251 18.0918C109.565 18.0918 111.392 18.8584 112.729 20.3916C114.067 21.915 114.707 24.2539 114.648 27.4082H104.336C104.365 28.6289 104.697 29.5811 105.332 30.2646C105.967 30.9385 106.758 31.2754 107.705 31.2754C108.35 31.2754 108.892 31.0996 109.331 30.748C109.771 30.3965 110.103 29.8301 110.327 29.0488ZM110.562 24.8887C110.532 23.6973 110.225 22.7939 109.639 22.1787C109.053 21.5537 108.34 21.2412 107.5 21.2412C106.602 21.2412 105.859 21.5684 105.273 22.2227C104.688 22.877 104.399 23.7656 104.409 24.8887H110.562ZM117.988 34V12.5254H124.478L128.374 27.1738L132.227 12.5254H138.73V34H134.702V17.0957L130.439 34H126.265L122.017 17.0957V34H117.988ZM142.056 26.002C142.056 24.6348 142.393 23.3115 143.066 22.0322C143.74 20.7529 144.692 19.7764 145.923 19.1025C147.163 18.4287 148.545 18.0918 150.068 18.0918C152.422 18.0918 154.351 18.8584 155.854 20.3916C157.358 21.915 158.11 23.8438 158.11 26.1777C158.11 28.5312 157.349 30.4844 155.825 32.0371C154.312 33.5801 152.402 34.3516 150.098 34.3516C148.672 34.3516 147.31 34.0293 146.011 33.3848C144.722 32.7402 143.74 31.7979 143.066 30.5576C142.393 29.3076 142.056 27.7891 142.056 26.002ZM146.274 26.2217C146.274 27.7646 146.641 28.9463 147.373 29.7666C148.105 30.5869 149.009 30.9971 150.083 30.9971C151.157 30.9971 152.056 30.5869 152.778 29.7666C153.511 28.9463 153.877 27.7549 153.877 26.1924C153.877 24.6689 153.511 23.4971 152.778 22.6768C152.056 21.8564 151.157 21.4463 150.083 21.4463C149.009 21.4463 148.105 21.8564 147.373 22.6768C146.641 23.4971 146.274 24.6787 146.274 26.2217ZM165.625 34L159.355 18.4434H163.677L166.606 26.3828L167.456 29.0342C167.681 28.3604 167.822 27.916 167.881 27.7012C168.018 27.2617 168.164 26.8223 168.32 26.3828L171.279 18.4434H175.513L169.331 34H165.625Z" fill="white"/>
</svg>
