<svg width="49" height="48" viewBox="0 0 49 48" fill="none" xmlns="http://www.w3.org/2000/svg">
<rect width="48.5569" height="47.2385" rx="10" fill="url(#paint0_linear_2146_3092)"/>
<path d="M35.8447 9.58902C36.0135 9.76482 36.1172 9.99062 36.1389 10.2295C36.1606 10.4684 36.0989 10.7063 35.964 10.9044L28.6714 21.6276L35.5718 23.6972C35.7746 23.758 35.9557 23.8753 36.0926 24.0347C36.2295 24.194 36.3163 24.3885 36.3422 24.5941C36.3682 24.7997 36.3322 25.0074 36.2386 25.1915C36.1451 25.3756 35.9982 25.5281 35.8159 25.6302L14.0432 37.8523C13.8325 37.9707 13.5861 38.0151 13.344 37.9784C13.1019 37.9417 12.8785 37.826 12.7102 37.6502C12.542 37.4743 12.4387 37.2487 12.4173 37.01C12.3958 36.7714 12.4575 36.5338 12.5923 36.3361L19.8854 25.6108L12.9851 23.5412C12.7823 23.4804 12.6012 23.3631 12.4643 23.2038C12.3274 23.0444 12.2406 22.8499 12.2147 22.6443C12.1887 22.4387 12.2247 22.2311 12.3182 22.0469C12.4118 21.8628 12.5587 21.7103 12.741 21.6082L34.5136 9.38613C34.7241 9.2679 34.9702 9.2234 35.212 9.25987C35.4538 9.29634 35.677 9.41163 35.8453 9.587L35.8447 9.58902ZM15.9947 22.2377L21.8983 24.0084C22.0608 24.0571 22.2099 24.1423 22.3336 24.2572C22.4573 24.372 22.5521 24.5133 22.6105 24.6696C22.6688 24.826 22.689 24.993 22.6695 25.1573C22.65 25.3217 22.5913 25.4787 22.4981 25.6157L16.9601 33.7567L32.5601 25.0001L26.6585 23.23C26.496 23.1813 26.347 23.0961 26.2233 22.9812C26.0996 22.8664 26.0048 22.7251 25.9464 22.5688C25.8881 22.4124 25.8678 22.2454 25.8873 22.0811C25.9069 21.9168 25.9656 21.7598 26.0587 21.6227L31.5968 13.4817L15.9947 22.2377Z" fill="white"/>
<path d="M15.9947 22.2377L21.8983 24.0084C22.0608 24.0571 22.2099 24.1423 22.3336 24.2572C22.4573 24.372 22.5521 24.5133 22.6105 24.6696C22.6688 24.826 22.689 24.993 22.6695 25.1573C22.65 25.3217 22.5913 25.4787 22.4981 25.6157L16.9601 33.7567L32.5601 25.0001L26.6585 23.23C26.496 23.1813 26.347 23.0961 26.2233 22.9812C26.0996 22.8664 26.0048 22.7251 25.9464 22.5688C25.8881 22.4124 25.8678 22.2454 25.8873 22.0811C25.9069 21.9168 25.9656 21.7598 26.0587 21.6227L31.5968 13.4817L15.9947 22.2377Z" fill="white"/>
<defs>
<linearGradient id="paint0_linear_2146_3092" x1="0" y1="23.6192" x2="48.5569" y2="23.6192" gradientUnits="userSpaceOnUse">
<stop stop-color="#1E40AF"/>
<stop offset="1" stop-color="#6D28D9"/>
</linearGradient>
</defs>
</svg>
